<svg width="113" height="16" viewBox="0 0 113 16" fill="none" xmlns="http://www.w3.org/2000/svg">
<path fill-rule="evenodd" clip-rule="evenodd" d="M17.1456 15.7172V7.49337C17.1456 5.16053 15.8957 4.05302 13.7967 4.05302C12.0515 4.05302 10.5421 5.08984 9.88173 6.12666C9.45722 4.83063 8.39594 4.05302 6.72147 4.05302C4.97624 4.05302 3.46686 5.13697 2.99518 5.82032V4.33579H0V15.7172H2.99518V8.05891C3.44328 7.42268 4.31589 6.71576 5.35359 6.71576C6.57996 6.71576 7.05164 7.46981 7.05164 8.53019V15.7172H10.0704V8.03535C10.4949 7.42268 11.3675 6.71576 12.4288 6.71576C13.6552 6.71576 14.1269 7.46981 14.1269 8.53019V15.7172H17.1456ZM25.3765 16C21.6266 16 19.3625 13.2666 19.3625 10.0147C19.3625 6.78645 21.6266 4.05302 25.3765 4.05302C29.1499 4.05302 31.414 6.78645 31.414 10.0147C31.414 13.2666 29.1499 16 25.3765 16ZM25.3765 13.3373C27.2396 13.3373 28.3009 11.8056 28.3009 10.0147C28.3009 8.24742 27.2396 6.71576 25.3765 6.71576C23.5133 6.71576 22.4756 8.24742 22.4756 10.0147C22.4756 11.8056 23.5133 13.3373 25.3765 13.3373ZM44.3145 15.7172V7.68189C44.3145 5.46686 43.1117 4.05302 40.6118 4.05302C38.7487 4.05302 37.3572 4.94845 36.6261 5.82032V4.33579H33.6309V15.7172H36.6261V8.05891C37.1214 7.37555 38.0411 6.71576 39.2203 6.71576C40.4939 6.71576 41.3193 7.25773 41.3193 8.83652V15.7172H44.3145ZM52.5689 16C48.8191 16 46.555 13.2666 46.555 10.0147C46.555 6.78645 48.8191 4.05302 52.5689 4.05302C56.3424 4.05302 58.6065 6.78645 58.6065 10.0147C58.6065 13.2666 56.3424 16 52.5689 16ZM52.5689 13.3373C54.4321 13.3373 55.4934 11.8056 55.4934 10.0147C55.4934 8.24742 54.4321 6.71576 52.5689 6.71576C50.7058 6.71576 49.6681 8.24742 49.6681 10.0147C49.6681 11.8056 50.7058 13.3373 52.5689 13.3373ZM63.8185 12.0648C64.3138 12.7953 65.4223 13.3373 66.3892 13.3373C68.1344 13.3373 69.2901 12.0177 69.2901 10.0383C69.2901 8.05891 68.1344 6.71576 66.3892 6.71576C65.4223 6.71576 64.3138 7.2813 63.8185 8.03535V12.0648ZM63.8185 15.7172H60.8234V0H63.8185V5.79676C64.7147 4.64212 65.9883 4.05302 67.3326 4.05302C70.2334 4.05302 72.3796 6.31517 72.3796 10.0383C72.3796 13.8321 70.2098 16 67.3326 16C65.9647 16 64.7147 15.3873 63.8185 14.2563V15.7172ZM84.4782 15.7172H81.483V14.539C80.7048 15.458 79.3605 16 77.8747 16C76.0587 16 73.9125 14.7747 73.9125 12.2298C73.9125 9.56701 76.0587 8.55376 77.8747 8.55376C79.384 8.55376 80.7283 9.0486 81.483 9.94404V8.41237C81.483 7.25773 80.4925 6.50368 78.9831 6.50368C77.7567 6.50368 76.6247 6.9514 75.6578 7.84683L74.5257 5.84389C75.9172 4.61856 77.7096 4.05302 79.502 4.05302C82.0962 4.05302 84.4782 5.08984 84.4782 8.36524V15.7172ZM79.0775 13.9735C80.0444 13.9735 80.9878 13.6436 81.483 12.9838V11.57C80.9878 10.9102 80.0444 10.5803 79.0775 10.5803C77.8982 10.5803 76.9313 11.1929 76.9313 12.3004C76.9313 13.3608 77.8982 13.9735 79.0775 13.9735ZM98.1334 15.7172V7.68189C98.1334 5.46686 96.9306 4.05302 94.4307 4.05302C92.5676 4.05302 91.1761 4.94845 90.445 5.82032V4.33579H87.4498V15.7172H90.445V8.05891C90.9402 7.37555 91.86 6.71576 93.0392 6.71576C94.3128 6.71576 95.1382 7.25773 95.1382 8.83652V15.7172H98.1334ZM112.237 15.7172L107.591 9.49632L112.095 4.33579H108.416L104.1 9.40206V0H101.105V15.7172H104.1V12.7953L105.468 11.3343L108.487 15.7172H112.237Z" fill="black"/>
</svg>
